<svg xmlns="http://www.w3.org/2000/svg" viewBox="0 0 500 500" width="256" height="256">
    <defs>
        <linearGradient id="a" x1="82.95" x2="417.05" y1="250" y2="250" gradientUnits="userSpaceOnUse">
            <stop offset="0" stop-color="#ffffff"></stop>
            <stop offset=".41" stop-color="#d3dbea"></stop>
            <stop offset="1" stop-color="#97abce"></stop>
        </linearGradient>
        <linearGradient id="b" x1="250" x2="250" y1="67.38" y2="432.34" gradientUnits="userSpaceOnUse">
            <stop offset="0" stop-color="#ffffff"></stop>
            <stop offset=".26" stop-color="#dbe2ee"></stop>
            <stop offset=".58" stop-color="#b6c4dd"></stop>
            <stop offset=".84" stop-color="#9fb2d2"></stop>
            <stop offset="1" stop-color="#97abce"></stop>
        </linearGradient>
    </defs>
    <g fill="#000000">
        <path fill="url(#a)"
              d="M417.05 316.05V184a52.66 52.66 0 0 0-26.32-45.6L267.55 67.23a35.1 35.1 0 0 0-35.1 0l-123.18 71.12A52.66 52.66 0 0 0 83 184v132.1a52.66 52.66 0 0 0 26.32 45.6l123.18 71.12a35.1 35.1 0 0 0 35.1 0l123.18-71.12a52.66 52.66 0 0 0 26.27-45.65Z"
              opacity=".4"></path>
        <path fill="url(#b)"
              d="M250 67.75a30 30 0 0 1 14.94 4l123.21 71.14a47.35 47.35 0 0 1 23.68 41v132.2a47.35 47.35 0 0 1-23.68 41l-123.21 71.16a29.9 29.9 0 0 1-29.88 0l-123.21-71.14a47.35 47.35 0 0 1-23.68-41v-132.2a47.35 47.35 0 0 1 23.68-41l123.21-71.16a30 30 0 0 1 14.94-4m0-5.22a35.13 35.13 0 0 0-17.55 4.7l-123.21 71.14A52.59 52.59 0 0 0 83 183.91v132.18a52.59 52.59 0 0 0 26.29 45.54l123.21 71.14a35.12 35.12 0 0 0 35.1 0l123.21-71.14a52.59 52.59 0 0 0 26.29-45.54V183.91a52.59 52.59 0 0 0-26.29-45.54L267.55 67.23a35.13 35.13 0 0 0-17.55-4.7Z"
              opacity=".6"></path>
        <path fill="#97abce"
              d="m252.39 140.43 18.87 5.14L263 176c5.09 1.27 10.18 2.55 15.14 3.91l8.23-30.21 18.88 5.13-8.45 31c23.79 8.77 41.07 21.52 37.13 44.47-2.86 16.81-12.37 24.77-24.84 27.36 16.84 9.23 25.22 23 16.45 46.42-7.87 21-22.84 27.87-42.74 27.44a135.54 135.54 0 0 1-24.8-3.25l-8.53 31.31-18.88-5.13 8.42-30.9q-7.33-2-15-4.24l-8.44 31-18.87-5.13 8.53-31.37c-4.41-1.23-8.88-2.53-13.45-3.79l-24.58-6.69 9.8-21.5s12.94 3.73 13.69 3.75a9.11 9.11 0 0 0 2.24.34c3.83.09 5.72-2.7 6.57-4.65l13.48-49.52 2 .54a18.41 18.41 0 0 0-2-.67l9.62-35.34c.31-4-1-9.15-8.61-11.24.3-.19-13.72-3.72-13.72-3.72l5.48-20.17 26.05 7.1v.1c3.91 1.07 8 2.08 12.06 3.11l8.45-31m23 101.3c9.56.21 18.25-2.54 21-12.57 6.06-22.26-28.35-28-39-30.87L247.13 236c5.64 1.54 17.51 5.52 28.28 5.75m-9.84 61.92c11 .23 20.74-2.76 23.64-13.45 6.66-24.45-34.46-31.69-47.27-35.19l-11.33 41.57c7 1.89 21.83 6.78 35 7.07m-16-168.14-1.05 3.86-7.42 27.23c-1.5-.37-3-.75-4.42-1.13v-.08l-3.76-1-26-7.1-3.86-1.05-1.1 3.82-5.49 20.17-1.07 3.93 3.95 1 5 1.27-.08.05 8.73 2.38c4.14 1.13 5.86 3.15 5.69 6.72l-9.47 34.8-.07.28-13.4 49.21c-1 2.05-2.17 2-2.7 2a4.89 4.89 0 0 1-1.29-.2l-10.48-2.83-3.19-.91-3.31-1-1.44 3.13-9.89 21.52-2 4.29 4.56 1.24 24.58 6.69c2.61.72 5.24 1.47 7.79 2.19l1.81.51-7.49 27.55-1 3.86 3.86 1.05 18.87 5.13 3.85 1.05 1.05-3.86 7.38-27.1c2.4.69 4.84 1.37 7.35 2.07l-7.37 27-1 3.86 3.86 1.05 18.88 5.13 3.86 1.05 1.05-3.86 7.54-27.7a129.5 129.5 0 0 0 21.81 2.59c11.38.25 20.55-1.79 28-6.23 8.35-5 14.42-12.75 18.56-23.81 4.52-12.06 5-22.64 1.33-31.45a36.37 36.37 0 0 0-12.28-15.2c10.55-4.87 17.24-14.35 19.53-27.86 2.06-12-1-22.39-9.21-31-6-6.34-14.89-11.79-27.05-16.61l7.5-27.53 1.05-3.86-3.86-1.05-18.88-5.13-3.86-1.05-1 3.86L275.3 175c-2.46-.65-4.93-1.28-7.39-1.9l7.21-26.46 1.06-3.86-3.87-1-18.87-5.14-3.86-1.06Zm2.39 97.69 8.19-30.09h.12c9.07 2.21 26 6.32 31.19 15.2a12.13 12.13 0 0 1 1 9.75c-1.17 4.26-4.19 9.9-17 9.62-8.25-.17-17.27-2.71-23.47-4.51Zm-16.52 60.59 9.26-33.95.87.22c11.29 2.79 32.3 8 38.54 18.62a12.94 12.94 0 0 1 1.17 10.45c-.73 2.69-2.94 10.85-19.7 10.5-10.56-.23-22.78-3.73-30.14-5.84Z"
              opacity=".6"></path>
        <path fill="#ffffff" fill-rule="evenodd"
              d="M333.88 230.3c3.94-23-13.33-35.7-37.12-44.47l8.44-31-18.88-5.13-8.23 30.21c-5-1.36-10-2.64-15.13-3.91l8.29-30.4-18.88-5.14-8.45 31c-4.11-1-8.15-2-12.06-3.11v-.1l-26-7.1-5.49 20.17s14 3.53 13.72 3.72c7.65 2.09 8.92 7.2 8.61 11.24l-9.62 35.34a19.27 19.27 0 0 1 2 .67l-2-.53-13.48 49.51c-1 2.31-3.45 5.76-8.81 4.31.19.28-13.72-3.73-13.72-3.73l-9.89 21.52 24.58 6.7c4.57 1.25 9 2.55 13.45 3.78l-8.53 31.37 18.87 5.13 8.44-31c5.16 1.5 10.16 2.91 15.05 4.24l-8.42 30.9 18.88 5.13 8.5-31.35c32.25 6.82 56.64 4.87 67.52-24.19 8.76-23.4.39-37.19-16.46-46.42 12.45-2.59 21.94-10.55 24.82-27.36Zm-44.69 59.9c-6.36 23.46-45.79 9.85-58.6 6.38L241.92 255c12.81 3.51 53.94 10.75 47.27 35.2Zm7.19-61c-5.81 21.33-38.62 9.72-49.27 6.82l10.26-37.69c10.63 2.86 45.07 8.57 39.01 30.83Z"></path>
    </g>
</svg>